<?xml version="1.0" encoding="utf-8"?>
<!-- Generator: Adobe Illustrator 21.0.2, SVG Export Plug-In . SVG Version: 6.00 Build 0)  -->
<svg version="1.1" id="Layer_1" xmlns="http://www.w3.org/2000/svg" xmlns:xlink="http://www.w3.org/1999/xlink" x="0px" y="0px"
	 viewBox="0 0 360 360" style="enable-background:new 0 0 360 360;" xml:space="preserve">
<style type="text/css">
	.st0{fill:#7291C1;}
	.st1{fill:#F3F1F0;}
	.st2{fill:#0D1929;}
</style>
<polygon class="st0" points="199.8,48.8 48.5,307 351,307 "/>
<g>
	<polygon class="st1" points="199.8,48.8 101.2,217 298.3,217 	"/>
</g>
<path class="st1" d="M207.7,318.9c3,1.9,5.7,3.5,8.8,4.2c5.8,1.5,9.6-1.6,9.5-7.6c0-2.8-1.4-5-2.9-7.7c5.3-0.8,8.9-3.6,9.4-9.1
	c0.6-6.4-5.2-6.6-9.3-8.7c1.5-1.1,2.7-1.9,3.9-2.8c4-3.1,4.3-7.4,1-11.8c-2.4-3.2-5.3-3.3-9.5,0c-1.5,1.2-2,1.1-2.9-0.5
	c-4-7.3-7.5-14.9-10.3-22.8c-3.2-9.1-2.3-18.4-1.1-27.8c0.9-6.8,2.1-13.2,8.8-16.9c1.3-0.7,2.3-1.8,3.4-2.7c1.2-1.1,2.3-1.3,3.9-0.4
	c2.9,1.7,6.1,3,9.1,4.6c1.2,0.7,2.1,0.7,3.2-0.3c1.4-1.4,2.9-2.6,4.4-3.8c1.2-0.9,1.3-1.7,0.5-3c-6.5-10.7-12.9-21.4-19.4-32.4
	c-7.6,12.7-15.1,25.3-22.9,38.2c-5.5-9.3-10.9-18.3-16.4-27.5c-4.9,8.2-9.7,16-14.4,23.9c-3.5,5.8-3.4,5.8,2.5,9.4
	c1.4,0.9,2.1,0.6,3.1-0.3c2.1-1.8,4.3-3.5,6.5-5.3c0.8-0.6,1.3-1.1,2.4-0.4c3.3,2.2,6.8,4.2,10.2,6.3c1.4,0.8,1.5,1.7,0.7,3.2
	c-1.9,3.4-3.5,6.9-5.1,10.5c-7,15.8-10.9,32.6-16,49c-0.6,1.9-0.8,2.6-2.6,1.1c-1.5-1.2-3.3-2-5.1-2.6c-2.7-0.9-5.3-1.2-7.3,1.4
	c-2.1,2.7-1.5,5.4,0,8.2c1.5,2.6,4,4.2,6.2,6.4c-4.3,3.1-9.7,5.6-7.7,12.4c1.9,6.4,7.3,4.6,12,4.6c-0.8,2-1.7,3.7-2.2,5.6
	c-1.6,5.4-0.4,8.8,3.5,10.6c4.7,2.2,9,1,12.1-3.4c0.5-0.7,1.1-1.4,1.9-2.5c2.4,7,5.2,13.1,13.5,13.3
	C201.8,331.7,206,326.7,207.7,318.9z"/>
<g>
	<path class="st2" d="M87.2,306.2c11.2-18.7,22.3-37.5,33.8-56.7c1.8,2.9,3.4,5.5,5.1,8.5c17.5-29.4,35-58.7,52.7-88.5
		c5.6,9.3,10.9,18.3,16.5,27.6c7.6-12.7,15-25.2,22.9-38.3c29.5,49.5,58.7,98.5,88.1,148c-2.7,0-4.9,0-7,0c-20.4,0-40.8,0-61.2,0
		c-3.9,0-7.1,3.5-6.7,7.4c1,10.5-6.7,16.9-16.8,13.7c-2.5-0.8-4-0.7-5.8,1.8c-7,9.6-21.7,9.7-29,0.3c-1.2-1.6-1.9-1.7-3.6-0.9
		c-9.6,4.4-19.9-2.2-19.8-12.7c0-2.3-1.3-3.1-2.7-4c-2.1-1.4-4.1-2.8-5.4-4.9c-0.9-1.4-2.2-0.7-3.2-0.7c-18.5-0.1-36.9,0-55.4,0
		C88.8,306.8,88,307.1,87.2,306.2z M207.7,318.9c3,1.9,5.7,3.5,8.8,4.2c5.8,1.5,9.6-1.6,9.5-7.6c0-2.8-1.4-5-2.9-7.7
		c5.3-0.8,8.9-3.6,9.4-9.1c0.6-6.4-5.2-6.6-9.3-8.7c1.5-1.1,2.7-1.9,3.9-2.8c4-3.1,4.3-7.4,1-11.8c-2.4-3.2-5.3-3.3-9.5,0
		c-1.5,1.2-2,1.1-2.9-0.5c-4-7.3-7.5-14.9-10.3-22.8c-3.2-9.1-2.3-18.4-1.1-27.8c0.9-6.8,2.1-13.2,8.8-16.9c1.3-0.7,2.3-1.8,3.4-2.7
		c1.2-1.1,2.3-1.3,3.9-0.4c2.9,1.7,6.1,3,9.1,4.6c1.2,0.7,2.1,0.7,3.2-0.3c1.4-1.4,2.9-2.6,4.4-3.8c1.2-0.9,1.3-1.7,0.5-3
		c-6.5-10.7-12.9-21.4-19.4-32.4c-7.6,12.7-15.1,25.3-22.9,38.2c-5.5-9.3-10.9-18.3-16.4-27.5c-4.9,8.2-9.7,16-14.4,23.9
		c-3.5,5.8-3.4,5.8,2.5,9.4c1.4,0.9,2.1,0.6,3.1-0.3c2.1-1.8,4.3-3.5,6.5-5.3c0.8-0.6,1.3-1.1,2.4-0.4c3.3,2.2,6.8,4.2,10.2,6.3
		c1.4,0.8,1.5,1.7,0.7,3.2c-1.9,3.4-3.5,6.9-5.1,10.5c-7,15.8-10.9,32.6-16,49c-0.6,1.9-0.8,2.6-2.6,1.1c-1.5-1.2-3.3-2-5.1-2.6
		c-2.7-0.9-5.3-1.2-7.3,1.4c-2.1,2.7-1.5,5.4,0,8.2c1.5,2.6,4,4.2,6.2,6.4c-4.3,3.1-9.7,5.6-7.7,12.4c1.9,6.4,7.3,4.6,12,4.6
		c-0.8,2-1.7,3.7-2.2,5.6c-1.6,5.4-0.4,8.8,3.5,10.6c4.7,2.2,9,1,12.1-3.4c0.5-0.7,1.1-1.4,1.9-2.5c2.4,7,5.2,13.1,13.5,13.3
		C201.8,331.7,206,326.7,207.7,318.9z"/>
</g>
<g>
	<path class="st1" d="M15.7,293.3l7-11.6l2.6,1.6l-2.7,4.5l16.4,9.9l-1.5,2.6l-16.4-9.9l-2.7,4.5L15.7,293.3z"/>
	<path class="st1" d="M26.2,275.9l6.3-10.5l2.6,1.6l-4.8,8l4.7,2.8l4.8-8l2.6,1.5l-4.8,8l6.5,3.9l4.8-8l2.6,1.5l-6.3,10.5
		L26.2,275.9z"/>
	<path class="st1" d="M39.7,251.7l25.1,2.9l-1.6,2.7l-6.2-0.7l-4.8,8.1l3.6,5.1l-1.6,2.7L39.7,251.7z M45.6,255.3l5,7.1l3.7-6.1
		L45.6,255.3z"/>
	<path class="st1" d="M57.7,221.6l22.9,6.7l-1.5,2.5l-14-4.1l9.6,13.1l-16.2-2.3L68.8,248l-1.5,2.5l-16.7-17.1l17.7,2.6L57.7,221.6z
		"/>
	<path class="st1" d="M73.7,195.1l25.1,2.9l-1.6,2.7L91,200l-4.8,8.1l3.6,5.1l-1.6,2.7L73.7,195.1z M79.6,198.7l5,7.1l3.7-6.1
		L79.6,198.7z"/>
	<path class="st1" d="M79.3,187.5l1.6-2.7l17,2.1l-9.9-14.1l1.7-2.8l14.3,20.6L79.3,187.5z"/>
	<path class="st1" d="M93.7,161.7l25.1,2.9l-1.6,2.7l-6.2-0.7l-4.8,8.1l3.6,5.1l-1.6,2.7L93.7,161.7z M99.7,165.3l5,7.1l3.7-6.1
		L99.7,165.3z"/>
	<path class="st1" d="M103.4,147.4l1.5-2.6l16.4,9.9l3.7-6.2l2.6,1.5l-5.3,8.8L103.4,147.4z"/>
	<path class="st1" d="M115.6,125.4l25.1,2.9l-1.6,2.7l-6.2-0.7l-4.8,8.1l3.6,5.1l-1.6,2.7L115.6,125.4z M121.5,129l5,7.1l3.7-6.1
		L121.5,129z"/>
	<path class="st1" d="M124.1,111.1l22.9-5.4l-13.7-8.2l1.6-2.6l19.9,11.9l-22.8,5.4l13.5,8.1l-1.6,2.6L124.1,111.1z"/>
	<path class="st1" d="M148.9,73l2.9,1.8c-2.2,1.4-3.9,3-4.9,4.8c-1.3,2.2-1.7,4.5-1.2,6.9c0.5,2.4,1.8,4.2,3.9,5.4
		c2.1,1.3,4.3,1.6,6.7,0.9c2.3-0.7,4.2-2.2,5.6-4.5c1-1.7,1.6-3.8,1.6-6.3l3,1.8c-0.1,2.3-0.8,4.4-2,6.4c-1.8,2.9-4.3,4.9-7.5,5.8
		c-3.2,0.9-6.3,0.5-9.1-1.2c-2.8-1.7-4.5-4.1-5.2-7.3c-0.7-3.2-0.2-6.3,1.5-9.2C145.3,76.2,146.9,74.5,148.9,73z"/>
	<path class="st1" d="M152,66.4l1.6-2.6l7.3,4.4l5.5-9.1l-7.3-4.4l1.5-2.6l19,11.4l-1.5,2.6l-9.1-5.5l-5.5,9.1l9.1,5.5l-1.6,2.6
		L152,66.4z"/>
	<path class="st1" d="M164.7,45.2l6.3-10.5l2.6,1.6l-4.8,8l4.7,2.8l4.8-8l2.6,1.5l-4.8,8l6.5,3.9l4.8-8l2.6,1.5l-6.3,10.5
		L164.7,45.2z"/>
</g>
</svg>
